<?xml version="1.0" encoding="utf-8"?>
<!-- Generator: Adobe Illustrator 16.0.3, SVG Export Plug-In . SVG Version: 6.00 Build 0)  -->
<!DOCTYPE svg PUBLIC "-//W3C//DTD SVG 1.1//EN" "http://www.w3.org/Graphics/SVG/1.1/DTD/svg11.dtd">
<svg version="1.1" id="Layer_1" xmlns="http://www.w3.org/2000/svg" xmlns:xlink="http://www.w3.org/1999/xlink" x="0px" y="0px"
	 width="133.292px" height="60px" viewBox="0 0 133.292 60" enable-background="new 0 0 133.292 60" xml:space="preserve">
<g>
	<g>
		<g>
			<path fill="#F8C340" d="M30,0C13.431,0,0,13.431,0,30s13.431,30,30,30c16.568,0,30-13.432,30-30S46.568,0,30,0z M30,40.697
				c-5.908,0-10.697-4.789-10.697-10.697S24.092,19.302,30,19.302c5.908,0,10.697,4.789,10.697,10.697S35.908,40.697,30,40.697z"/>
		</g>
		<g>
			<path fill="#1B75BB" d="M30,54.967L30,54.967V60l0,0c16.542,0,30-13.458,30-30h-5.032C54.968,43.767,43.768,54.967,30,54.967z"/>
			<path fill="#FAAF40" d="M5.033,30H0c0,16.542,13.458,30,30,30v-5.032C16.233,54.967,5.033,43.767,5.033,30z"/>
			<path fill="#26A9E0" d="M30,5.032V0C13.458,0,0,13.458,0,30h5.033C5.033,16.233,16.233,5.032,30,5.032z"/>
			<path fill="#1B75BB" d="M30,45.073L30,45.073v5.154l0,0c11.153,0,20.228-9.073,20.228-20.227h-5.155
				C45.073,38.311,38.311,45.073,30,45.073z"/>
			<path fill="#FAAF40" d="M30,50.227v-5.154c-8.312,0-15.072-6.763-15.072-15.073H9.773C9.773,41.153,18.847,50.227,30,50.227z"/>
			<path fill="#26A9E0" d="M30,14.927c8.311,0,15.073,6.762,15.073,15.073h5.155c0-11.153-9.074-20.228-20.228-20.228l0,0V14.927
				L30,14.927z"/>
			<path fill="#FAAF40" d="M30,14.927V9.772C18.847,9.772,9.773,18.846,9.773,30h5.155C14.928,21.688,21.688,14.927,30,14.927z"/>
		</g>
	</g>
	<g>
		<path fill="#FFFFFF" d="M72.812,13.551h0.028l2.24-6.903h2.211l2.098,6.903h0.028l2.013-6.903h2.891l-3.416,10.688H78.07
			l-1.872-6.194H76.17l-2.098,6.194h-2.82l-3.19-10.688h2.893L72.812,13.551z"/>
		<path fill="#FFFFFF" d="M90.67,9.001v1.786h3.132v2.353H90.67v1.843h3.302v2.353h-6.081V6.648h6.081v2.354H90.67z"/>
		<path fill="#FFFFFF" d="M101.711,15.961c0,0.907-0.737,1.658-1.658,1.658s-1.658-0.751-1.658-1.658
			c0-0.921,0.737-1.658,1.658-1.658S101.711,15.04,101.711,15.961z"/>
		<path fill="#FFFFFF" d="M77.049,23.657h3.444l-4.251,5.06l4.635,5.627h-3.601l-3.586-4.636h-0.028v4.636h-2.778V23.657h2.778
			v4.408h0.028L77.049,23.657z"/>
		<path fill="#FFFFFF" d="M87.183,32.487l-0.737,1.857h-2.948l4.11-10.688h3.034l4.025,10.688h-2.962l-0.694-1.857H87.183z
			 M89.125,26.959h-0.029l-1.147,3.402h2.31L89.125,26.959z"/>
		<path fill="#FFFFFF" d="M97.798,23.657h2.779l5.088,6.534h0.029v-6.534h2.778v10.688h-2.778l-5.088-6.549h-0.028v6.549h-2.779
			V23.657z"/>
		<path fill="#FFFFFF" d="M116.31,32.969c0,0.907-0.737,1.658-1.66,1.658c-0.92,0-1.657-0.751-1.657-1.658
			c0-0.921,0.737-1.658,1.657-1.658C115.573,31.311,116.31,32.048,116.31,32.969z"/>
		<path fill="#FFFFFF" d="M76.752,43.415c-0.51-0.425-1.163-0.708-1.843-0.708c-0.51,0-1.191,0.297-1.191,0.893
			c0,0.623,0.751,0.864,1.233,1.02l0.709,0.213c1.488,0.438,2.637,1.19,2.637,2.919c0,1.063-0.256,2.155-1.106,2.878
			c-0.836,0.708-1.957,1.006-3.033,1.006c-1.346,0-2.665-0.454-3.756-1.219l1.191-2.24c0.694,0.609,1.517,1.105,2.466,1.105
			c0.653,0,1.346-0.326,1.346-1.078c0-0.779-1.091-1.048-1.686-1.219c-1.743-0.496-2.892-0.949-2.892-3.019
			c0-2.169,1.545-3.586,3.685-3.586c1.077,0,2.396,0.34,3.346,0.879L76.752,43.415z"/>
		<path fill="#FFFFFF" d="M88.615,40.665h3.444l-4.252,5.061l4.635,5.627h-3.601l-3.586-4.635h-0.028v4.635h-2.779V40.665h2.779
			v4.409h0.028L88.615,40.665z"/>
		<path fill="#FFFFFF" d="M98.748,49.496l-0.737,1.856h-2.948l4.11-10.688h3.033l4.025,10.688h-2.962l-0.694-1.856H98.748z
			 M100.69,43.967h-0.028l-1.148,3.402h2.31L100.69,43.967z"/>
		<path fill="#FFFFFF" d="M113.335,51.352h-2.777v-8.334h-2.297v-2.354h7.372v2.354h-2.297V51.352z"/>
		<path fill="#FFFFFF" d="M122.25,43.018v1.786h3.133v2.353h-3.133v1.842h3.303v2.353h-6.081V40.665h6.081v2.354H122.25z"/>
		<path fill="#FFFFFF" d="M133.292,49.978c0,0.907-0.737,1.658-1.658,1.658c-0.922,0-1.658-0.751-1.658-1.658
			c0-0.921,0.736-1.659,1.658-1.659C132.554,48.319,133.292,49.056,133.292,49.978z"/>
	</g>
</g>
</svg>
