<?xml version="1.0" encoding="utf-8"?>
<!-- Generator: Adobe Illustrator 16.0.3, SVG Export Plug-In . SVG Version: 6.00 Build 0)  -->
<!DOCTYPE svg PUBLIC "-//W3C//DTD SVG 1.1//EN" "http://www.w3.org/Graphics/SVG/1.1/DTD/svg11.dtd">
<svg version="1.1" id="Layer_1" xmlns="http://www.w3.org/2000/svg" xmlns:xlink="http://www.w3.org/1999/xlink" x="0px" y="0px"
	 width="60px" height="60px" viewBox="0 0 60 60" enable-background="new 0 0 60 60" xml:space="preserve">
<g>
	<g>
		<path fill="#F8C340" d="M30,0C13.432,0,0,13.432,0,30c0,16.569,13.432,30,30,30c16.569,0,30-13.431,30-30C60,13.432,46.569,0,30,0
			z M30,40.697c-5.908,0-10.697-4.789-10.697-10.697c0-5.908,4.79-10.697,10.697-10.697c5.908,0,10.697,4.79,10.697,10.697
			C40.697,35.908,35.908,40.697,30,40.697z"/>
	</g>
	<g>
		<path fill="#1B75BB" d="M30,54.968L30,54.968L30,60h0C46.542,60,60,46.542,60,30h-5.032C54.968,43.768,43.768,54.968,30,54.968z"
			/>
		<path fill="#FAAF40" d="M5.033,30H0c0,16.542,13.458,30,30,30v-5.032C16.233,54.968,5.033,43.768,5.033,30z"/>
		<path fill="#26A9E0" d="M30,5.032V0C13.458,0,0,13.458,0,30h5.032C5.033,16.233,16.233,5.032,30,5.032z"/>
		<path fill="#1B75BB" d="M30,45.073L30,45.073l0,5.154h0c11.153,0,20.227-9.074,20.227-20.228h-5.155
			C45.073,38.312,38.311,45.073,30,45.073z"/>
		<path fill="#FAAF40" d="M30,50.228v-5.154c-8.311,0-15.072-6.762-15.072-15.073H9.773C9.773,41.154,18.847,50.228,30,50.228z"/>
		<path fill="#26A9E0" d="M30,14.927c8.311,0,15.072,6.762,15.072,15.073h5.155c0-11.153-9.074-20.227-20.227-20.227h0L30,14.927
			L30,14.927z"/>
		<path fill="#FAAF40" d="M30,14.927V9.773C18.847,9.773,9.773,18.847,9.773,30h5.155C14.928,21.689,21.689,14.928,30,14.927z"/>
	</g>
</g>
<g>
	<path fill="#FFFFFF" d="M393.411,233.373h0.074l5.942-18.315h5.867l5.566,18.315h0.074l5.341-18.315h7.672l-9.063,28.357h-7.522
		l-4.965-16.436h-0.074l-5.566,16.436h-7.484l-8.462-28.357h7.673L393.411,233.373z"/>
	<path fill="#FFFFFF" d="M440.795,221.301v4.739h8.312v6.242h-8.312v4.89h8.763v6.243h-16.134v-28.357h16.134v6.243H440.795z"/>
	<path fill="#FFFFFF" d="M470.09,239.767c0,2.407-1.955,4.4-4.4,4.4c-2.444,0-4.399-1.993-4.399-4.4c0-2.445,1.955-4.4,4.399-4.4
		C468.135,235.366,470.09,237.321,470.09,239.767z"/>
	<path fill="#FFFFFF" d="M404.655,260.187h9.139l-11.282,13.426l12.298,14.931h-9.553l-9.515-12.298h-0.075v12.298h-7.371v-28.356
		h7.371v11.695h0.075L404.655,260.187z"/>
	<path fill="#FFFFFF" d="M431.543,283.617l-1.956,4.926h-7.822l10.906-28.356h8.048l10.681,28.356h-7.86l-1.842-4.926H431.543z
		 M436.695,268.948h-0.074l-3.047,9.027h6.13L436.695,268.948z"/>
	<path fill="#FFFFFF" d="M459.709,260.187h7.372l13.501,17.337h0.075v-17.337h7.371v28.356h-7.371l-13.501-17.376h-0.075v17.376
		h-7.372V260.187z"/>
	<path fill="#FFFFFF" d="M508.826,284.896c0,2.406-1.956,4.399-4.401,4.399c-2.443,0-4.399-1.993-4.399-4.399
		c0-2.444,1.956-4.4,4.399-4.4C506.87,280.495,508.826,282.451,508.826,284.896z"/>
	<path fill="#FFFFFF" d="M403.866,312.61c-1.354-1.128-3.085-1.88-4.89-1.88c-1.354,0-3.159,0.789-3.159,2.369
		c0,1.654,1.993,2.294,3.271,2.707l1.881,0.565c3.949,1.165,6.995,3.158,6.995,7.746c0,2.821-0.677,5.717-2.934,7.636
		c-2.219,1.88-5.19,2.67-8.048,2.67c-3.572,0-7.07-1.203-9.967-3.234l3.159-5.942c1.843,1.617,4.024,2.934,6.544,2.934
		c1.73,0,3.572-0.865,3.572-2.858c0-2.068-2.896-2.782-4.475-3.234c-4.626-1.316-7.673-2.52-7.673-8.011
		c0-5.754,4.1-9.515,9.778-9.515c2.858,0,6.356,0.902,8.876,2.332L403.866,312.61z"/>
	<path fill="#FFFFFF" d="M435.342,305.314h9.139l-11.282,13.427l12.298,14.931h-9.553l-9.516-12.299h-0.074v12.299h-7.372v-28.357
		h7.372v11.696h0.074L435.342,305.314z"/>
	<path fill="#FFFFFF" d="M462.23,328.745l-1.955,4.927h-7.823l10.907-28.357h8.048l10.681,28.357h-7.86l-1.842-4.927H462.23z
		 M467.382,314.077h-0.075l-3.046,9.026h6.13L467.382,314.077z"/>
	<path fill="#FFFFFF" d="M500.934,333.672h-7.371v-22.114h-6.093v-6.243h19.557v6.243h-6.093V333.672z"/>
	<path fill="#FFFFFF" d="M524.589,311.558v4.738h8.312v6.244h-8.312v4.889h8.763v6.243h-16.135v-28.357h16.135v6.243H524.589z"/>
	<path fill="#FFFFFF" d="M553.884,330.023c0,2.406-1.955,4.4-4.4,4.4c-2.444,0-4.399-1.994-4.399-4.4c0-2.444,1.955-4.4,4.399-4.4
		C551.929,325.623,553.884,327.579,553.884,330.023z"/>
</g>
</svg>
