<?xml version="1.0" encoding="utf-8"?>
<!-- Generator: Adobe Illustrator 16.0.3, SVG Export Plug-In . SVG Version: 6.00 Build 0)  -->
<!DOCTYPE svg PUBLIC "-//W3C//DTD SVG 1.1//EN" "http://www.w3.org/Graphics/SVG/1.1/DTD/svg11.dtd">
<svg version="1.1" id="Layer_1" xmlns="http://www.w3.org/2000/svg" xmlns:xlink="http://www.w3.org/1999/xlink" x="0px" y="0px"
	 width="60px" height="60px" viewBox="0 0 60 60" enable-background="new 0 0 60 60" xml:space="preserve">
<g>
	<g>
		<path fill="#F8C340" d="M30,0C13.432,0,0,13.432,0,30s13.431,30,30,30c16.569,0,30-13.432,30-30S46.568,0,30,0z M30,40.697
			c-5.908,0-10.697-4.789-10.697-10.697S24.092,19.303,30,19.303S40.696,24.092,40.696,30S35.907,40.697,30,40.697z"/>
	</g>
	<g>
		<path fill="#1B75BB" d="M30,54.968L30,54.968L30,60h0c16.542,0,30-13.458,30-30h-5.032C54.968,43.768,43.768,54.968,30,54.968z"/>
		<path fill="#FAAF40" d="M5.032,30H0c0,16.542,13.458,30,30,30v-5.032C16.232,54.968,5.032,43.768,5.032,30z"/>
		<path fill="#26A9E0" d="M30,5.032V0C13.458,0,0,13.458,0,30h5.032C5.032,16.232,16.232,5.032,30,5.032z"/>
		<path fill="#1B75BB" d="M30,45.073L30,45.073l0,5.154h0c11.153,0,20.227-9.074,20.227-20.228h-5.154
			C45.072,38.312,38.311,45.073,30,45.073z"/>
		<path fill="#FAAF40" d="M30,50.228v-5.154C21.688,45.072,14.927,38.312,14.927,30H9.772C9.772,41.153,18.847,50.228,30,50.228z"/>
		<path fill="#26A9E0" d="M30,14.928c8.311,0,15.072,6.761,15.072,15.072h5.154c0-11.153-9.073-20.228-20.227-20.228h0L30,14.928
			L30,14.928z"/>
		<path fill="#FAAF40" d="M30,14.928V9.772C18.847,9.772,9.772,18.847,9.772,30h5.155C14.927,21.689,21.688,14.928,30,14.928z"/>
	</g>
</g>
</svg>
