<?xml version="1.0" encoding="utf-8"?>
<!-- Generator: Adobe Illustrator 16.0.3, SVG Export Plug-In . SVG Version: 6.00 Build 0)  -->
<!DOCTYPE svg PUBLIC "-//W3C//DTD SVG 1.1//EN" "http://www.w3.org/Graphics/SVG/1.1/DTD/svg11.dtd">
<svg version="1.1" id="Layer_1" xmlns="http://www.w3.org/2000/svg" xmlns:xlink="http://www.w3.org/1999/xlink" x="0px" y="0px"
	 width="66.697px" height="60.083px" viewBox="0 0 66.697 60.083" enable-background="new 0 0 66.697 60.083" xml:space="preserve">
<g>
	<path fill="#FFFFFF" d="M4.855,13.061h0.028l2.29-7.059h2.261l2.145,7.059h0.029l2.058-7.059h2.957l-3.493,10.928h-2.899
		l-1.913-6.333H8.29l-2.145,6.333H3.261L0,6.002h2.957L4.855,13.061z"/>
	<path fill="#FFFFFF" d="M23.116,8.409v1.826h3.203v2.406h-3.203v1.884h3.377v2.406h-6.218V6.002h6.218v2.406H23.116z"/>
	<path fill="#FFFFFF" d="M34.405,15.525c0,0.927-0.753,1.696-1.696,1.696c-0.942,0-1.695-0.769-1.695-1.696
		c0-0.942,0.753-1.696,1.695-1.696C33.652,13.829,34.405,14.583,34.405,15.525z"/>
	<path fill="#FFFFFF" d="M9.188,23.394h3.521l-4.348,5.174l4.739,5.754H9.42l-3.667-4.739H5.725v4.739h-2.84V23.394h2.84v4.507
		h0.029L9.188,23.394z"/>
	<path fill="#FFFFFF" d="M19.551,32.423l-0.754,1.898h-3.014l4.203-10.928h3.102l4.116,10.928h-3.029l-0.709-1.898H19.551z
		 M21.536,26.771h-0.029l-1.174,3.479h2.362L21.536,26.771z"/>
	<path fill="#FFFFFF" d="M30.405,23.394h2.841l5.203,6.682h0.029v-6.682h2.84v10.928h-2.84l-5.203-6.696h-0.029v6.696h-2.841V23.394
		z"/>
	<path fill="#FFFFFF" d="M49.333,32.916c0,0.928-0.754,1.696-1.696,1.696c-0.941,0-1.695-0.769-1.695-1.696
		c0-0.941,0.754-1.695,1.695-1.695C48.579,31.22,49.333,31.974,49.333,32.916z"/>
	<path fill="#FFFFFF" d="M8.884,43.597C8.362,43.162,7.696,42.873,7,42.873c-0.522,0-1.217,0.304-1.217,0.913
		c0,0.637,0.768,0.884,1.261,1.043l0.725,0.218c1.521,0.449,2.695,1.217,2.695,2.985c0,1.087-0.261,2.203-1.13,2.942
		c-0.855,0.725-2,1.028-3.102,1.028c-1.376,0-2.725-0.463-3.841-1.245l1.217-2.291c0.71,0.623,1.551,1.131,2.522,1.131
		c0.667,0,1.376-0.333,1.376-1.102c0-0.797-1.116-1.072-1.724-1.246C4,46.742,2.826,46.278,2.826,44.163
		c0-2.218,1.58-3.668,3.769-3.668c1.102,0,2.45,0.349,3.42,0.899L8.884,43.597z"/>
	<path fill="#FFFFFF" d="M21.015,40.785h3.521l-4.348,5.175l4.739,5.754h-3.681l-3.667-4.739h-0.029v4.739H14.71V40.785h2.841v4.508
		h0.029L21.015,40.785z"/>
	<path fill="#FFFFFF" d="M31.376,49.815l-0.753,1.898h-3.015l4.204-10.929h3.102l4.116,10.929H36l-0.709-1.898H31.376z
		 M33.362,44.163h-0.029l-1.174,3.479h2.362L33.362,44.163z"/>
	<path fill="#FFFFFF" d="M46.292,51.713h-2.841v-8.522h-2.348v-2.406h7.536v2.406h-2.348V51.713z"/>
	<path fill="#FFFFFF" d="M55.408,43.191v1.826h3.203v2.406h-3.203v1.884h3.376v2.406h-6.218V40.785h6.218v2.406H55.408z"/>
	<path fill="#FFFFFF" d="M66.697,50.308c0,0.927-0.753,1.694-1.695,1.694s-1.695-0.768-1.695-1.694c0-0.943,0.753-1.696,1.695-1.696
		S66.697,49.365,66.697,50.308z"/>
</g>
</svg>
